<svg width="64" height="64" viewBox="0 0 64 64" fill="none" xmlns="http://www.w3.org/2000/svg" role="img" aria-labelledby="title desc">
  <title id="title">PHENIX</title>
  <desc id="desc">Blue PHENIX phoenix mark</desc>
  <defs>
    <linearGradient id="mark" x1="16" y1="10" x2="48" y2="56" gradientUnits="userSpaceOnUse">
      <stop stop-color="#38BDF8"/>
      <stop offset="0.5" stop-color="#0284C7"/>
      <stop offset="1" stop-color="#075985"/>
    </linearGradient>
  </defs>
  <circle cx="32" cy="32" r="30" fill="#F0F9FF"/>
  <circle cx="32" cy="32" r="28.5" stroke="#BAE6FD" stroke-width="3"/>
  <g transform="translate(6 2) scale(1.3)">
    <path d="M25.8 6.9C31.1 7.8 35.6 12.1 36.4 17.6C37.2 23.1 34.1 28 29.7 30.5C26.5 32.4 23.8 34.4 22.6 38.7C21.2 34.7 18.5 32.4 15.2 30.4C10.7 27.6 8.1 22.4 9.2 17.2C10.4 11.7 15.1 7.6 20.4 6.8C18.4 10 17.8 13.3 19.7 16.8C21.1 19.5 23.8 20.8 27.3 21.4C24.3 23.5 22.6 26.1 22.4 29.9C25.6 25.8 31 25.4 33.1 20.1C35 15.4 31.6 10.3 25.8 6.9Z" fill="url(#mark)"/>
    <path d="M18.1 8.8C13.6 12.7 12.8 18.6 16.3 23.1C18 25.2 20.5 26.7 23.4 27.9" stroke="#E0F2FE" stroke-width="1.45" stroke-linecap="round"/>
    <path d="M30.9 12.2C31.7 16.2 30.4 19.1 27 21.2" stroke="#BAE6FD" stroke-width="1.25" stroke-linecap="round"/>
    <path d="M7 39H39" stroke="#0284C7" stroke-width="1.35" stroke-linecap="round" opacity="0.7"/>
  </g>
</svg>
