<svg width="196" height="44" viewBox="0 0 196 44" fill="none" xmlns="http://www.w3.org/2000/svg" role="img" aria-labelledby="title desc">
  <title id="title">PHENIX</title>
  <desc id="desc">Porcelain blue PHENIX wordmark</desc>
  <defs>
    <linearGradient id="ink" x1="18" y1="4" x2="178" y2="41" gradientUnits="userSpaceOnUse">
      <stop stop-color="#075985"/>
      <stop offset="0.48" stop-color="#0B4F7A"/>
      <stop offset="1" stop-color="#083A63"/>
    </linearGradient>
    <linearGradient id="seal" x1="8" y1="7" x2="41" y2="39" gradientUnits="userSpaceOnUse">
      <stop stop-color="#38BDF8"/>
      <stop offset="1" stop-color="#075985"/>
    </linearGradient>
  </defs>

  <g>
    <path d="M25.8 6.9C31.1 7.8 35.6 12.1 36.4 17.6C37.2 23.1 34.1 28 29.7 30.5C26.5 32.4 23.8 34.4 22.6 38.7C21.2 34.7 18.5 32.4 15.2 30.4C10.7 27.6 8.1 22.4 9.2 17.2C10.4 11.7 15.1 7.6 20.4 6.8C18.4 10 17.8 13.3 19.7 16.8C21.1 19.5 23.8 20.8 27.3 21.4C24.3 23.5 22.6 26.1 22.4 29.9C25.6 25.8 31 25.4 33.1 20.1C35 15.4 31.6 10.3 25.8 6.9Z" fill="url(#seal)" fill-opacity="0.95"/>
    <path d="M18.1 8.8C13.6 12.7 12.8 18.6 16.3 23.1C18 25.2 20.5 26.7 23.4 27.9" stroke="#E0F2FE" stroke-width="1.3" stroke-linecap="round"/>
    <path d="M30.9 12.2C31.7 16.2 30.4 19.1 27 21.2" stroke="#BAE6FD" stroke-width="1.15" stroke-linecap="round"/>
    <path d="M7 39H39" stroke="#075985" stroke-width="1.2" stroke-linecap="round" opacity="0.65"/>
    <path d="M11 42H35" stroke="#7DD3FC" stroke-width="1" stroke-linecap="round" opacity="0.75"/>
  </g>

  <g fill="url(#ink)">
    <path d="M53.2 31.5V12.2H61.4C65.8 12.2 68.8 14.8 68.8 18.7C68.8 22.7 65.8 25.3 61.4 25.3H57.4V31.5H53.2ZM57.4 21.8H61C63.2 21.8 64.5 20.6 64.5 18.7C64.5 16.9 63.2 15.7 61 15.7H57.4V21.8Z"/>
    <path d="M72.2 31.5V12.2H76.4V20H85.2V12.2H89.5V31.5H85.2V23.6H76.4V31.5H72.2Z"/>
    <path d="M94.1 31.5V12.2H108V15.7H98.3V19.9H107.1V23.3H98.3V28H108.3V31.5H94.1Z"/>
    <path d="M112.1 31.5V12.2H116L125.1 24.6V12.2H129.2V31.5H125.4L116.2 19V31.5H112.1Z"/>
    <path d="M133.8 31.5V12.2H138V31.5H133.8Z"/>
    <path d="M141.2 31.5L148.1 21.6L141.6 12.2H146.5L150.7 18.5L155 12.2H159.8L153.2 21.5L160.2 31.5H155.2L150.6 24.7L146 31.5H141.2Z"/>
  </g>

  <path d="M52 37.7H160.5" stroke="#7DD3FC" stroke-width="1" stroke-linecap="round" opacity="0.75"/>
  <path d="M52 39.8H126" stroke="#075985" stroke-width="1" stroke-linecap="round" opacity="0.45"/>
</svg>
