<svg width="40" height="40" viewBox="0 0 40 40" fill="none" xmlns="http://www.w3.org/2000/svg" role="img" aria-labelledby="title desc">
  <title id="title">PHENIX Member Credential</title>
  <desc id="desc">Porcelain blue member credential mark</desc>
  <defs>
    <linearGradient id="seal" x1="8" y1="5" x2="32" y2="35" gradientUnits="userSpaceOnUse">
      <stop stop-color="#38BDF8"/>
      <stop offset="0.55" stop-color="#0EA5E9"/>
      <stop offset="1" stop-color="#075985"/>
    </linearGradient>
    <linearGradient id="ink" x1="11" y1="8" x2="29" y2="31" gradientUnits="userSpaceOnUse">
      <stop stop-color="#0EA5E9"/>
      <stop offset="1" stop-color="#083A63"/>
    </linearGradient>
  </defs>
  <circle cx="20" cy="20" r="18" fill="#F0F9FF" stroke="#BAE6FD" stroke-width="1.5"/>
  <path d="M20 6.5L23.4 9.2L27.7 8.7L29.2 12.8L33.1 14.7L31.8 18.9L33.1 23.1L29.2 25L27.7 29.1L23.4 28.6L20 31.3L16.6 28.6L12.3 29.1L10.8 25L6.9 23.1L8.2 18.9L6.9 14.7L10.8 12.8L12.3 8.7L16.6 9.2L20 6.5Z" fill="white" stroke="url(#seal)" stroke-width="1.7" stroke-linejoin="round"/>
  <path d="M21.9 11.4C25.4 12.3 27.7 15.5 27.2 19C26.8 21.7 25 23.6 22.8 24.9C21.2 25.9 19.7 27 19 29.1C18.1 27 16.6 25.9 15 24.9C12.5 23.4 11.1 20.6 11.8 17.8C12.5 14.9 15 12.6 17.8 11.8C16.8 13.8 16.7 15.9 17.8 17.6C18.6 18.9 19.8 19.7 21.6 20.1C20.2 21.4 19.4 22.8 19.3 24.7C21 22.5 24.2 22.1 25.2 19C26.1 16.4 24.8 13.6 21.9 11.4Z" fill="url(#ink)"/>
  <path d="M16.5 14C14.6 16 14.5 19 16.4 21.1C17.2 22 18.3 22.6 19.6 23.1" stroke="#E0F2FE" stroke-width="1.1" stroke-linecap="round"/>
  <path d="M16 32.4H24" stroke="#0EA5E9" stroke-width="1.2" stroke-linecap="round" opacity="0.75"/>
</svg>
